<?xml version="1.0" standalone="no"?>
<!DOCTYPE svg PUBLIC "-//W3C//DTD SVG 20010904//EN"
 "http://www.w3.org/TR/2001/REC-SVG-20010904/DTD/svg10.dtd">
<svg version="1.0" xmlns="http://www.w3.org/2000/svg"
 width="78.000000pt" height="78.000000pt" viewBox="0 0 78.000000 78.000000"
 preserveAspectRatio="xMidYMid meet">
<metadata>
Created by potrace 1.14, written by Peter Selinger 2001-2017
</metadata>
<g transform="translate(0.000000,78.000000) scale(0.100000,-0.100000)"
fill="#000000" stroke="none">
<path d="M528 655 c-2 -2 -25 -6 -51 -8 -27 -3 -58 -12 -70 -20 -44 -30 -104
-93 -130 -139 -15 -26 -34 -53 -42 -62 -9 -8 -15 -18 -15 -21 0 -3 -6 -18 -14
-33 -12 -24 -22 -72 -41 -193 -5 -30 -2 -39 19 -54 14 -10 22 -23 20 -27 -3
-5 -2 -8 3 -7 4 1 10 0 13 -1 21 -8 39 -7 33 3 -4 6 0 8 10 4 9 -3 19 -2 22 3
6 10 24 8 44 -4 11 -7 13 -5 8 7 -3 10 -2 17 3 17 6 0 10 -6 10 -12 0 -10 2
-10 9 0 4 8 11 13 15 13 19 -3 27 0 21 8 -3 6 3 8 15 6 11 -2 23 1 26 7 4 7 2
8 -4 4 -23 -14 -11 2 13 18 23 15 24 15 18 -1 -5 -15 -3 -14 10 2 9 11 17 26
17 33 0 7 9 20 20 29 22 19 27 38 8 27 -8 -4 -10 -3 -5 2 5 5 14 9 19 9 6 0
13 6 16 14 3 8 0 11 -7 7 -7 -5 -9 -1 -5 8 3 9 10 14 14 11 4 -3 11 2 14 11 3
8 11 12 17 8 8 -4 9 -3 5 5 -4 6 -13 8 -19 4 -7 -3 -4 3 6 14 14 16 15 22 5
26 -9 4 -9 6 -1 6 7 1 10 8 6 18 -4 9 -2 14 3 11 8 -5 12 17 15 75 0 9 4 15 9
12 5 -3 12 0 16 6 4 8 3 9 -4 5 -7 -4 -12 -3 -12 3 0 5 -3 17 -7 27 -5 13 -3
15 8 9 12 -8 12 -6 0 8 -9 11 -10 17 -2 17 6 0 11 5 11 11 0 5 -4 8 -9 5 -5
-3 -7 8 -6 24 2 19 -3 31 -14 36 -19 8 -58 13 -63 9z"/>
</g>
</svg>
